<svg width="283" height="70" viewBox="0 0 283 70" fill="none" xmlns="http://www.w3.org/2000/svg">
<path d="M165 0C179.407 0 191.78 8.70441 197.149 21.141C198.809 24.9873 202.311 28 206.5 28C210.689 28 214.191 24.9873 215.851 21.141C221.22 8.70441 233.593 0 248 0C267.33 0 283 15.67 283 35C283 54.33 267.33 70 248 70C234.035 70 221.981 61.8205 216.365 49.9911C214.502 46.0649 210.846 43 206.5 43C202.154 43 198.498 46.0649 196.635 49.9911C191.019 61.8206 178.965 70 165 70H35C15.67 70 0 54.33 0 35C0 15.67 15.67 0 35 0H165Z" fill="#FFD600"/>
</svg>
